<?xml version="1.0" encoding="UTF-8"?>
<svg id="Capa_1" xmlns="http://www.w3.org/2000/svg" version="1.1" xmlns:xlink="http://www.w3.org/1999/xlink" viewBox="0 0 1300 690">
  <!-- Generator: Adobe Illustrator 29.8.2, SVG Export Plug-In . SVG Version: 2.1.1 Build 3)  -->
  <defs>
    <style>
      .st0 {
        fill: #fff;
      }

      .st1 {
        fill: none;
      }

      .st2 {
        fill: #410000;
      }

      .st3 {
        clip-path: url(#clippath);
      }
    </style>
    <clipPath id="clippath">
      <rect class="st1" x="17.65" y="16.3" width="1264.7" height="657.39" rx="94.73" ry="94.73"/>
    </clipPath>
  </defs>
  <g class="st3">
    <g>
      <rect class="st2" x="-37.5" y="-342.5" width="1375" height="1375"/>
      <g>
        <path class="st0" d="M164.5,365.5c.38-1.74,2.98-1.57,4.53-2.97,3.47-3.12,4.21-10.95,4.51-15.49,1.73-25.69,2.19-69.68-.06-95.03-.71-7.95-2.57-11.82-8.98-16.52h34c-1.56,2.52-4.87,3.33-6.42,6.08-.58,1.02-2.58,7.64-2.58,8.42v112.5h25.5c16.32,0,36.17-21.48,42.67-35.33,30.75-65.51-11.5-152-91.37-132.37-74.08,18.2-88.19,136.01-7.8,153.71-.65,6.18-13.08.61-16.68-.83-62.51-24.93-64.12-111.63-6.34-144.7,74.97-42.91,172.59,20.6,145.53,107.53-7.93,25.48-36.92,54.99-65.01,54.99h-51.5Z"/>
        <path class="st0" d="M443,235.5l54,107.01,45.5-107.01h23c-4.56,3.94-7.69,5.98-8,12.5-1.98,41.2-.05,105.05-.05,105.05,0,0,1.63,6.89,3.18,8.81,1.82,2.26,3.96,1.69,4.87,3.64h-33c1.44-2.03,3.8-2.65,5.45-5.05.5-.73,2.55-5.06,2.55-5.45v-105.5l-50.01,116-58.99-116v100.5c0,1.27,3.35,7.12,4.48,8.52l9.52,6.98h-30l10.83-8.67c2.31-3.74.91-8.43,1.21-12.79,2.03-29.43-1.51-61.26-.16-90.93-1.15-9.69-5.43-11.84-11.89-17.61h27.5Z"/>
        <path class="st0" d="M669,235.5l5.49,24-4.97-6.52c-5.49-6.77-18.86-14.48-27.52-14.48h-31.5v60h21.5c1.63,0,9.48-3.68,11.01-4.99l5.49-8.01v28l-5.1-7.4c-1.26-1.15-8.24-4.6-9.4-4.6h-23.5v62h29.5c2.74,0,11.94-2.85,15.02-3.98,9.95-3.64,16.42-9.52,22.47-18.02l-4.99,24h-87c1.6-2.22,3.96-1.67,5.86-4.64,1.71-2.68,1.95-5.73,2.18-8.82,2.5-33.89-1.96-70.83-.04-105.04.01-5.98-4.48-7.87-8-11.5h83.5Z"/>
        <path class="st0" d="M387,235.5l6.49,25c-6.24-8.05-11.82-15.01-21.73-18.76-2.43-.92-9.64-3.24-11.76-3.24h-31.5v60h21.5c1.63,0,9.48-3.68,11.01-4.99l5.49-8.01v28c-2.24-1.69-2.75-5.41-5.07-7.43-.89-.77-8.77-4.57-9.43-4.57h-23.5v62h29.5c8.22,0,23.93-7.29,30.02-12.98l7.47-9.02-4.99,24h-87c.36-1.76,3-1.55,4.54-2.96,3.12-2.88,4.21-11.24,4.51-15.49,2.14-30.76-1.68-64-.06-95.03-.71-7.96-2.57-11.82-8.98-16.52h83.5Z"/>
        <path class="st0" d="M723,239.5c-10.8,1.54-20.02,11.06-26.49,19,1.25-3.79,2.53-21.82,5.63-22.86l96.4.32,4.46,22.55c-3.18-7.1-18.53-19.01-26-19.01h-18.5v114.5c0,.72,1.93,5.49,2.54,6.46,1.53,2.42,4.13,3,5.46,5.04h-33c.4-1.82,2.89-1.35,4.46-3.04.59-.64,3.54-7.01,3.54-7.46v-115.5c-5.78.58-12.91-.8-18.5,0Z"/>
        <path class="st0" d="M823.5,365.5c1.7-2.27,4.26-2.72,5.77-5.73s2.03-7.49,2.27-10.73c2.41-32.25-1.89-67.47-.04-100.05-.68-6.05-3.44-9.86-8-13.49,26.29,1.46,69.77-6.54,88,17.49,12.5,16.49,7.94,42.45-9.07,53.93-5.2,3.51-11.51,4.97-16.91,8.06,10.59,14.79,17.9,32.32,30.5,45.48l7.47,5.03h-25l-30-51h-20v40.5c0,.39,2.04,4.72,2.55,5.45,1.66,2.4,4.01,3.01,5.45,5.05h-33ZM872,238.5c-7.37-.81-15.98.6-23.5,0v74h23.5c2.48,0,9.99-3.09,12.53-4.47,26.98-14.53,22.2-65.72-12.53-69.53Z"/>
        <path class="st0" d="M944.5,365.5l10-8.5,4.18-7.82,43.83-114.68c2.18,1.15,2.84,4.55,3.74,6.75,15.99,39.3,29.02,80.38,47.74,118.26l7.51,5.99h-37c1.64-2.26,5.03-3.26,6.24-6.25,3.82-9.43-9.9-32.47-12.47-42.51-2.58-2.62-37.95-1.03-43.87-.61-2.64,10.12-16.66,33.18-11.77,42.75l7.87,6.63h-26ZM1016.5,313.5l-20.5-53.01-20.5,53.01h41Z"/>
        <path class="st0" d="M496.99,437.47c0,12.29-9.96,22.25-22.25,22.25s-22.25-9.96-22.25-22.25,9.96-22.25,22.25-22.25,22.25,9.96,22.25,22.25ZM462.84,449.16c2.24,2.25,6.94,4.17,10.12,4.4,26.47,1.87,22.29-39.4-4.3-31.4-10.56,3.18-13.43,19.37-5.82,27Z"/>
        <path class="st0" d="M395.91,437.46c0,12.27-9.95,22.22-22.22,22.22s-22.22-9.95-22.22-22.22,9.95-22.22,22.22-22.22,22.22,9.95,22.22,22.22ZM361.84,449.16c7.26,7.28,23.44,5.63,26.89-4.93,4.55-13.92-4.84-25.52-19.51-22.51-11.61,2.39-15.48,19.32-7.39,27.44Z"/>
        <path class="st0" d="M801,416.5c11.97,3.14,13.02,24.11-.49,26.49l9.99,15.5c-1.87-.31-5.35.64-6.79-.2-1.02-.59-7.81-13.46-9.18-14.31-2.07-1.28-6.51-.13-9.02-.48v15h-6v-42s18.99-.66,21.5,0ZM785.5,421.5v17c6.96-.19,19.07,1.29,19.06-8.5s-12.05-8.6-19.06-8.5Z"/>
        <path class="st0" d="M329.6,429.39c.68-10.67-20.47-10.66-19.13-1.45,1.25,8.58,26.24,5.15,25.68,19.91-.64,16.67-32.76,15.26-32.65-2.34,7.6-1.53,5.24,2.06,8.96,5.54,5.79,5.42,20.98,2.64,16.54-6.55-2.93-6.06-24.64-2.76-24.58-17.5.06-14.62,27.71-15.72,30.69-1.54.95,4.52-1.69,4.37-5.51,3.94Z"/>
        <path class="st0" d="M707.16,425.84c-7.15-7.24-21.56-5.78-25.85,3.98-7.36,16.71,10.95,31.17,24.21,20.2,4.07-3.36,4.15-8.12,10.97-6.52-9.06,28.95-51.23,15.65-41.49-14,6.02-18.31,32.55-18.81,40.33-1.34.56,1.25,1.78,1.72.16,2.85-6.79,1.19-5.29-2.1-8.34-5.19Z"/>
        <path class="st0" d="M644.36,416.64l17.14,41.85-6.89-.11-3.75-8.75h-20.25c-.73,2.82-2.4,8.86-2.4,8.86h-6.71l16.49-41.85h6.37ZM648.5,443.5l-7.41-19.7-7.59,19.7h15Z"/>
        <path class="st0" d="M543.5,444.5v14h-6v-42h19.5c1.05,0,6.53,3.41,7.51,4.49,4.9,5.42,4.04,15.77-1.49,20.52-.62.53-4.72,2.98-5.02,2.98h-14.5ZM543.5,439.5c8.08.02,18.4,1.35,18.08-9.51-.29-9.86-10.73-8.49-18.08-8.49v18Z"/>
        <polygon class="st0" points="760.5 416.5 760.5 421.5 740.5 421.5 740.5 434.5 758.5 434.5 759.5 439.5 740.5 439.5 740.5 453.5 761.5 453.5 761.5 458.5 734.5 458.5 734.5 416.5 760.5 416.5"/>
        <polygon class="st0" points="590.5 416.5 590.5 453.5 610.5 453.5 610.5 458.5 584.5 458.5 584.5 416.5 590.5 416.5"/>
        <polygon class="st0" points="419.5 416.5 419.5 453.5 439.5 453.5 439.5 458.5 413.5 458.5 413.5 416.5 419.5 416.5"/>
        <path class="st0" d="M1056.8,451.21c-3.08-3.81-1.29-7.33,2.69-9.22,11.67-5.57,26.65-.48,39-1.5,4.94-29.27,12.78-57.95,19.82-86.74.65-6.67-18.24-17.83-23.29-22.28-12.95-11.44-19.15-22.43-15.28-40.22,10.36-26.39,24.37-51.22,36.46-76.81,15.6-5.97,37.55-2.35,52.64,4.2,3.23,1.4,12.51,6.12,14.57,8.43,4.28,4.82,1.99,7.17,2.03,11.88.09,10.39-.94,20.82-1,31-.11,21.53,6.88,60.13-15.29,72.71-13.27,7.53-28.79,5-42.16,11.84l-18.39,87.42c.28,1.09,17.74,6.6,20.87,8.08,6.64,3.15,25.76,13.33,11.03,20-15.64,7.07-63.92-3.93-77.95-14.07-.81-.59-5.45-4.34-5.76-4.72ZM1117.5,216.51c-.3,1.83,1.27,2.96,2.5,3.99,10.83,9.08,47.29,16.89,60.53,12.54,1.18-.39,2.16-1.07,2.95-2.03-17.52-14.61-44.02-19.78-65.98-14.49ZM1183.49,234.5c-21.71,6.37-49.79-.94-67.98-14-6.67,20.75-19.85,39.46-28.19,59.32-1.07,2.56-6.3,15.01-4.82,16.67,17.78-4.96,39.17-2.59,57.18,1.32,15.12,3.28,29.85,9.9,41.81,19.69l2-83ZM1123.49,353.5h-2.99s-2.99,17.99-2.99,17.99c1.85-.66,1.17-4.3,2.05-6.23.41-.89,1.77-.76,2.47-2.69.44-1.21,1.8-8.74,1.46-9.07ZM1114.51,391.49c-.69-3.37.59-6.55.87-9.62.1-1.12.92-3.59-.87-3.37-3.17,15.65-6.75,31.34-10.69,46.81-1.17,4.58-4.34,19.88-6.31,22.69-.86,1.23-2.3,2.78-4,2.49l2.99-6.99c-12.61-.19-26-3.5-37.94,2.05-1.35,1.99,3.05,5.72,4.47,6.92,13.43,11.28,53.83,17.94,70.98,16.03,2.81-.31,5.79-1.26,8.06-2.99,2.99-4.84-12.82-12.02-16.38-13.7-5.51-2.6-11.26-4.82-17.18-6.31l1.5,7.99c-7.52-3.93-2.46-17.76-1.19-25.18,2.22-12.98,5.46-25.9,7.67-38.81l-1.98,1.99Z"/>
        <path d="M1110.48,244.5l6.01-18c-3.3,3.28-6.38,10.41-7.57,14.93-.54,2.06-1.3,3.58,1.56,3.07ZM1092.4,285.38c.94-.82.08-4.37.54-5.85,3.36-10.75,13.73-22.33,15.55-34.03-4.22,5.46-7.93,12.22-11.16,18.33-3.95,7.46-9.37,16.24-9.82,24.67,1.67-3.47,4.65-2.91,4.89-3.12Z"/>
        <path class="st0" d="M1092.4,285.38c-.24.21-3.22-.36-4.89,3.12.45-8.43,5.87-17.21,9.82-24.67,3.23-6.1,6.94-12.87,11.16-18.33-1.82,11.7-12.19,23.28-15.55,34.03-.46,1.48.4,5.03-.54,5.85Z"/>
        <path class="st0" d="M1110.48,244.5c-2.86.51-2.11-1.01-1.56-3.07,1.19-4.51,4.27-11.64,7.57-14.93l-6.01,18Z"/>
        <path class="st0" d="M1119.49,453.5c.91.96-.14,2.93-1.72,3.77-3.9,2.08-14.62.56-18.27-2.28,4.82-.84,9.62,1.26,14.55.56,1.75-.25,4.94-2.57,5.44-2.05Z"/>
        <path class="st0" d="M1166.49,222.51c.25,1.77-2.25.98-3.25.76-7.24-1.57-14.75-3.33-21.97-5.08-1.78-.43-3.32-.23-2.76-2.69,9.7,1.11,18.79,3.92,27.99,7.01Z"/>
      </g>
    </g>
  </g>
</svg>